<svg width="30" height="30" viewBox="0 0 20 20" fill="none" xmlns="http://www.w3.org/2000/svg" style="filter:none"><path fill-rule="evenodd" clip-rule="evenodd" d="M4.19694 1.88377C5.29514 1.3128 6.70757 1.10033 8.16651 1.27736C9.62588 1.45445 11.1382 2.02167 12.4366 2.80437C12.5649 2.88166 12.6061 3.04822 12.5288 3.17639C12.4515 3.30456 12.2848 3.3458 12.1566 3.26851C10.9133 2.51903 9.47335 1.98192 8.10116 1.81542C6.72853 1.64886 5.4302 1.85352 4.44714 2.36462C4.3143 2.43369 4.15061 2.38203 4.08152 2.24925C4.01242 2.11647 4.0641 1.95284 4.19694 1.88377Z" fill="#1B1B1B"></path><path fill-rule="evenodd" clip-rule="evenodd" d="M16.0805 7.89533C16.2244 7.85423 16.3745 7.93758 16.4156 8.0815C16.9421 9.92431 17.1142 12.0977 16.8125 13.9943C16.5115 15.887 15.7355 17.52 14.7329 18.4942C13.7458 19.5089 12.329 20.0587 10.8453 19.8869C9.36805 19.7157 7.85276 18.8327 6.69341 17.602C6.59076 17.4931 6.59592 17.3216 6.70493 17.219C6.81394 17.1164 6.98552 17.1215 7.08817 17.2305C8.18472 18.3945 9.58933 19.1957 10.9077 19.3485C12.2183 19.5003 13.4716 19.0149 14.3466 18.1138L14.3494 18.1109L14.3523 18.108C15.2503 17.2371 15.9886 15.7225 16.277 13.9092C16.5651 12.0978 16.4011 10.0044 15.8942 8.23033C15.8531 8.08642 15.9365 7.93643 16.0805 7.89533Z" fill="#1B1B1B"></path><path fill-rule="evenodd" clip-rule="evenodd" d="M17.2451 8.195C17.3781 8.1261 17.5417 8.17797 17.6106 8.31084C18.4169 9.8651 18.8598 11.6529 18.7756 13.2433C18.6914 14.8344 18.0788 16.2291 17.1444 17.142C16.1592 18.1575 14.5966 18.7817 12.8473 18.784C11.0984 18.7862 9.15809 18.1679 7.55901 17.194C7.43114 17.1162 7.39063 16.9494 7.46853 16.8216C7.54644 16.6938 7.71325 16.6533 7.84112 16.7312C9.37081 17.6627 11.2145 18.2441 12.8466 18.242C14.4768 18.2399 15.8911 17.6568 16.7575 16.7622L16.7602 16.7595L16.763 16.7568C17.5885 15.9516 18.156 14.6906 18.2341 13.2147C18.3124 11.7365 17.8989 10.0441 17.1293 8.56033C17.0603 8.42745 17.1122 8.26389 17.2451 8.195Z" fill="#1B1B1B"></path><path fill-rule="evenodd" clip-rule="evenodd" d="M17.1441 2.85663C17.2499 2.96246 17.2499 3.13405 17.1441 3.23989L16.4567 3.92694C16.3508 4.03277 16.1792 4.03277 16.0733 3.92694C15.9674 3.82111 15.9674 3.64952 16.0733 3.54369L16.7606 2.85663C16.8665 2.7508 17.0382 2.7508 17.1441 2.85663Z" fill="#1B1B1B"></path><path fill-rule="evenodd" clip-rule="evenodd" d="M13.1873 6.81169C13.2932 6.91752 13.2932 7.08911 13.1873 7.19494L7.20815 13.1717C7.10227 13.2775 6.93061 13.2775 6.82474 13.1717C6.71886 13.0658 6.71886 12.8942 6.82474 12.7884L12.8039 6.81169C12.9098 6.70585 13.0814 6.70585 13.1873 6.81169Z" fill="#1B1B1B"></path><path fill-rule="evenodd" clip-rule="evenodd" d="M3.90771 16.0877C4.01359 16.1935 4.01359 16.3651 3.90771 16.4709L3.23601 17.1423C3.13013 17.2482 2.95847 17.2482 2.8526 17.1423C2.74672 17.0365 2.74672 16.8649 2.8526 16.7591L3.5243 16.0877C3.63018 15.9818 3.80184 15.9818 3.90771 16.0877Z" fill="#1B1B1B"></path><path fill-rule="evenodd" clip-rule="evenodd" d="M4.74601 16.7757C4.89562 16.782 5.01182 16.9083 5.00557 17.0578C4.97718 17.737 5.12467 18.1442 5.32682 18.3228C5.49947 18.4754 5.80897 18.5353 6.34344 18.249C6.47542 18.1784 6.63974 18.228 6.71045 18.3599C6.78116 18.4919 6.7315 18.6561 6.59952 18.7268C5.97712 19.0601 5.3889 19.1011 4.9677 18.7289C4.57601 18.3828 4.43354 17.7595 4.46382 17.0352C4.47007 16.8856 4.59641 16.7695 4.74601 16.7757Z" fill="#1B1B1B"></path><path fill-rule="evenodd" clip-rule="evenodd" d="M9.89798 7.05059C9.96522 7.18432 9.91127 7.34722 9.77748 7.41443C7.0589 8.78014 4.33437 10.6884 2.98826 12.0696L2.98644 12.0714L2.98459 12.0733C2.51662 12.5353 2.14562 12.9864 1.89691 13.3898C1.64331 13.8012 1.53737 14.1301 1.54773 14.3572C1.55672 14.5542 1.6556 14.7065 1.87356 14.8194C2.10518 14.9394 2.46325 15.0067 2.93885 14.9901C3.0885 14.9849 3.21405 15.1019 3.21929 15.2514C3.22453 15.401 3.10747 15.5265 2.95783 15.5318C2.43508 15.5501 1.97153 15.4806 1.62406 15.3006C1.26292 15.1135 1.02526 14.8026 1.00607 14.3819C0.98824 13.9913 1.16247 13.5481 1.43529 13.1055C1.71266 12.6556 2.11366 12.1716 2.60168 11.6895C4.00357 10.2518 6.7826 8.31234 9.53399 6.93014C9.66778 6.86293 9.83074 6.91686 9.89798 7.05059Z" fill="#1B1B1B"></path><path fill-rule="evenodd" clip-rule="evenodd" d="M18.5051 5.06402C18.636 4.99142 18.8011 5.03866 18.8737 5.16955C19.108 5.5917 18.9765 6.12705 18.7121 6.63216C18.4388 7.15421 17.979 7.73241 17.3964 8.30801C16.4829 9.27355 14.9196 10.4421 13.1889 11.5225C11.4529 12.6063 9.5275 13.6145 7.882 14.2511C7.74237 14.3051 7.58535 14.2358 7.53131 14.0962C7.47727 13.9566 7.54665 13.7996 7.68629 13.7456C9.29154 13.1246 11.1859 12.134 12.9017 11.0628C14.6207 9.98965 16.1397 8.84852 17.0055 7.93239L17.0087 7.92898L17.0121 7.92567C17.5737 7.37121 17.9932 6.83648 18.2317 6.38087C18.4796 5.90732 18.4922 5.5995 18.3995 5.43246C18.3269 5.30157 18.3742 5.13662 18.5051 5.06402Z" fill="#1B1B1B"></path><path fill-rule="evenodd" clip-rule="evenodd" d="M9.08879 0.650508C7.77822 0.498688 6.52489 0.984094 5.64994 1.88518L5.64711 1.88809L5.64419 1.89092C4.74627 2.76186 4.00789 4.27645 3.71949 6.0898C3.4314 7.90114 3.59547 9.99458 4.1023 11.7686C4.14341 11.9126 4.06003 12.0625 3.91605 12.1036C3.77208 12.1447 3.62203 12.0614 3.58091 11.9175C3.05444 10.0746 2.88235 7.90124 3.18399 6.0047C3.48501 4.11199 4.26104 2.47899 5.26368 1.50477C6.25069 0.490017 7.66752 -0.0597685 9.15121 0.112107C10.6285 0.283248 12.1438 1.16622 13.3031 2.39693C13.4058 2.50589 13.4006 2.6774 13.2916 2.78001C13.1826 2.88261 13.011 2.87746 12.9084 2.76849C11.8118 1.60445 10.4072 0.803246 9.08879 0.650508Z" fill="#1B1B1B"></path><path fill-rule="evenodd" clip-rule="evenodd" d="M3.92376 16.072C4.02964 16.1779 4.02964 16.3494 3.92376 16.4553L3.90775 16.4713C3.80187 16.5771 3.63021 16.5771 3.52433 16.4713C3.41846 16.3655 3.41846 16.1939 3.52433 16.088L3.54035 16.072C3.64623 15.9662 3.81789 15.9662 3.92376 16.072Z" fill="#1B1B1B"></path><path fill-rule="evenodd" clip-rule="evenodd" d="M15.0289 1.2701C15.4206 1.6162 15.5631 2.23949 15.5328 2.96382C15.5266 3.11336 15.4002 3.22952 15.2506 3.22327C15.101 3.21702 14.9848 3.09073 14.9911 2.94119C15.0194 2.26201 14.872 1.85481 14.6698 1.67619C14.4972 1.52363 14.1877 1.46373 13.6532 1.74997C13.5212 1.82065 13.3569 1.77101 13.2862 1.63908C13.2155 1.50715 13.2651 1.3429 13.3971 1.27222C14.0195 0.938883 14.6077 0.897928 15.0289 1.2701Z" fill="#1B1B1B"></path><path fill-rule="evenodd" clip-rule="evenodd" d="M18.1529 4.60313C18.4664 4.70997 18.736 4.89261 18.8792 5.18035C18.9459 5.31436 18.8913 5.47703 18.7572 5.54368C18.6231 5.61033 18.4604 5.55572 18.3937 5.42171C18.3354 5.30454 18.2091 5.19494 17.9779 5.11614C17.7465 5.03728 17.4348 4.99872 17.0555 5.00895C16.9058 5.01299 16.7812 4.89498 16.7771 4.74537C16.7731 4.59575 16.8911 4.47119 17.0408 4.46715C17.4579 4.45589 17.8396 4.49636 18.1529 4.60313Z" fill="#1B1B1B"></path><path fill-rule="evenodd" clip-rule="evenodd" d="M12.4637 5.89879C12.5199 6.03749 12.4531 6.19552 12.3143 6.25176C11.5218 6.57299 10.6599 6.96483 9.77882 7.41377C9.64542 7.48174 9.48215 7.42874 9.41416 7.29539C9.34616 7.16204 9.39918 6.99884 9.53258 6.93087C10.4271 6.47514 11.303 6.07678 12.1106 5.74948C12.2493 5.69324 12.4074 5.76009 12.4637 5.89879Z" fill="#1B1B1B"></path><path fill-rule="evenodd" clip-rule="evenodd" d="M12.1345 0.741235C11.4725 0.451304 10.729 0.464515 9.99266 0.868955C9.86144 0.941029 9.6966 0.893119 9.6245 0.761945C9.5524 0.630771 9.60033 0.466006 9.73156 0.393932C10.6126 -0.0899587 11.5328 -0.11402 12.3521 0.244788C13.1648 0.600696 13.8565 1.32277 14.3221 2.29565C14.3867 2.43067 14.3296 2.59248 14.1945 2.65707C14.0595 2.72167 13.8976 2.66458 13.833 2.52956C13.4104 1.64674 12.8031 1.03406 12.1345 0.741235Z" fill="#1B1B1B"></path><path fill-rule="evenodd" clip-rule="evenodd" d="M4.56349 2.00117C4.63143 2.13455 4.57833 2.29772 4.44489 2.36563C3.9792 2.60262 3.57456 2.90113 3.23601 3.23979L3.23442 3.24138L3.23281 3.24295C2.33785 4.10899 1.75456 5.52276 1.75246 7.15227C1.75036 8.78375 2.33194 10.6266 3.26388 12.1557C3.34178 12.2835 3.30128 12.4503 3.17341 12.5281C3.04554 12.606 2.87872 12.5655 2.80082 12.4377C1.82661 10.8393 1.20799 8.89977 1.21024 7.15158C1.21249 5.40236 1.83741 3.83989 2.85404 2.8551C3.2324 2.47693 3.68289 2.14521 4.19888 1.88262C4.33232 1.81471 4.49556 1.86779 4.56349 2.00117Z" fill="#1B1B1B"></path><path fill-rule="evenodd" clip-rule="evenodd" d="M5.73863 17.1985C5.87523 17.1372 6.03567 17.1982 6.09698 17.3348C6.51337 18.2621 7.12861 18.9156 7.81132 19.234C8.48656 19.549 9.24825 19.5471 10.0037 19.1303C10.1348 19.058 10.2997 19.1056 10.3721 19.2366C10.4444 19.3677 10.3968 19.5325 10.2657 19.6048C9.35992 20.1045 8.4157 20.114 7.58202 19.7252C6.75581 19.3398 6.05913 18.5741 5.6023 17.5567C5.54099 17.4202 5.60202 17.2598 5.73863 17.1985Z" fill="#1B1B1B"></path><path fill-rule="evenodd" clip-rule="evenodd" d="M10.1035 0.508534C10.1714 0.641927 10.1183 0.80509 9.98484 0.872969C9.56141 1.08835 9.14314 1.40667 8.74977 1.8002L8.74862 1.80135L8.74746 1.80248C7.84144 2.68743 6.90479 4.2276 6.24223 6.06731C5.58062 7.90441 5.19808 10.0248 5.15382 11.8203C5.15013 11.9699 5.0258 12.0882 4.87611 12.0845C4.72642 12.0808 4.60807 11.9565 4.61176 11.8069C4.65744 9.95373 5.05063 7.77582 5.73206 5.88373C6.41227 3.99498 7.38541 2.37559 8.36734 1.41596C8.79114 0.992182 9.25423 0.636456 9.73893 0.389911C9.87238 0.322032 10.0356 0.375141 10.1035 0.508534Z" fill="#1B1B1B"></path><path fill-rule="evenodd" clip-rule="evenodd" d="M14.0968 7.53343C14.2364 7.58745 14.3058 7.7444 14.2517 7.88398C13.6149 9.5288 12.6063 11.4534 11.5221 13.1887C10.441 14.9191 9.27173 16.4819 8.30569 17.395C7.72102 17.9799 7.12738 18.459 6.59428 18.7296C6.46077 18.7973 6.29759 18.744 6.22981 18.6106C6.16203 18.4771 6.21532 18.314 6.34883 18.2463C6.80924 18.0126 7.35694 17.5776 7.92479 17.0092L7.92758 17.0064L7.93045 17.0037C8.84696 16.1383 9.98855 14.6199 11.0622 12.9016C12.1338 11.1865 13.1248 9.29294 13.7461 7.68835C13.8001 7.54877 13.9571 7.47941 14.0968 7.53343Z" fill="#1B1B1B"></path><path fill-rule="evenodd" clip-rule="evenodd" d="M17.2208 6.70758C17.3235 6.59862 17.495 6.59346 17.604 6.69607C18.8353 7.85496 19.7186 9.36962 19.8898 10.8463C20.0617 12.3294 19.5117 13.7456 18.4966 14.7322C17.522 15.7344 15.8883 16.5101 13.9948 16.8111C12.0975 17.1126 9.92318 16.9406 8.07961 16.4143C7.93563 16.3732 7.85225 16.2232 7.89336 16.0793C7.93448 15.9354 8.08452 15.852 8.2285 15.8931C10.0033 16.3997 12.0976 16.5637 13.9097 16.2758C15.7238 15.9875 17.239 15.2494 18.1103 14.3519L18.1131 14.3489L18.116 14.3461C19.0174 13.4715 19.5031 12.2187 19.3512 10.9087C19.1984 9.59081 18.3969 8.18678 17.2323 7.09067C17.1233 6.98806 17.1182 6.81655 17.2208 6.70758Z" fill="#1B1B1B"></path><path fill-rule="evenodd" clip-rule="evenodd" d="M11.7681 4.10584C9.99336 3.59922 7.89907 3.43522 6.08698 3.72319C4.27288 4.01148 2.75768 4.74955 1.88639 5.6471L1.88356 5.65001L1.88065 5.65284C0.979197 6.52744 0.493583 7.78026 0.645474 9.09028C0.798275 10.4082 1.5998 11.8122 2.76432 12.9083C2.87333 13.0109 2.87849 13.1824 2.77584 13.2914C2.67319 13.4003 2.50161 13.4055 2.3926 13.3029C1.16138 12.144 0.278064 10.6293 0.106853 9.15268C-0.0651042 7.66959 0.484919 6.25335 1.50009 5.26674C2.4747 4.26451 4.10837 3.48881 6.00185 3.18791C7.89916 2.8864 10.0735 3.05841 11.917 3.58466C12.061 3.62576 12.1444 3.77575 12.1033 3.91966C12.0622 4.06358 11.9121 4.14693 11.7681 4.10584Z" fill="#1B1B1B"></path><path fill-rule="evenodd" clip-rule="evenodd" d="M16.8251 7.46963C16.9536 7.39286 17.1201 7.43477 17.1969 7.56325C17.3425 7.80689 17.4812 8.05702 17.6115 8.31254C17.6794 8.4459 17.6264 8.60909 17.493 8.67704C17.3596 8.74499 17.1963 8.69197 17.1283 8.55861C17.0038 8.31424 16.871 8.07476 16.7314 7.84127C16.6546 7.71279 16.6965 7.5464 16.8251 7.46963Z" fill="#1B1B1B"></path><path fill-rule="evenodd" clip-rule="evenodd" d="M7.2084 12.7886C7.31427 12.8944 7.31427 13.066 7.2084 13.1718L7.19254 13.1877C7.08666 13.2935 6.915 13.2935 6.80912 13.1877C6.70325 13.0819 6.70325 12.9103 6.80912 12.8044L6.82498 12.7886C6.93086 12.6827 7.10252 12.6827 7.2084 12.7886Z" fill="#1B1B1B"></path><path fill-rule="evenodd" clip-rule="evenodd" d="M13.9571 2.16967C14.0913 2.10329 14.2539 2.15822 14.3203 2.29237L14.3899 2.43302C14.4563 2.56717 14.4014 2.72972 14.2672 2.7961C14.133 2.86248 13.9703 2.80755 13.9039 2.6734L13.8343 2.53275C13.7679 2.3986 13.8229 2.23605 13.9571 2.16967Z" fill="#1B1B1B"></path><path fill-rule="evenodd" clip-rule="evenodd" d="M13.7667 1.38841C13.8345 1.52187 13.7812 1.68498 13.6477 1.75274C13.1873 1.98638 12.6396 2.42136 12.0717 2.98977L12.069 2.99257L12.0661 2.99528C11.1496 3.8607 10.008 5.37905 8.93436 7.09739C7.86277 8.81247 6.87175 10.7061 6.25046 12.3107C6.19642 12.4502 6.03941 12.5196 5.89977 12.4656C5.76013 12.4116 5.69074 12.2546 5.74479 12.115C6.38165 10.4702 7.39022 8.54559 8.47446 6.81028C9.55558 5.07994 10.7248 3.51711 11.6908 2.604C12.2755 2.01912 12.8692 1.53997 13.4023 1.26944C13.5358 1.20169 13.699 1.25496 13.7667 1.38841Z" fill="#1B1B1B"></path><path fill-rule="evenodd" clip-rule="evenodd" d="M17.203 5.7357C17.2675 5.60063 17.4293 5.54341 17.5645 5.60789C18.5049 6.05662 19.2905 6.69788 19.6907 7.49088C19.7581 7.6245 19.7044 7.78748 19.5707 7.8549C19.4371 7.92231 19.274 7.86864 19.2066 7.73501C18.8792 7.08641 18.2079 6.5155 17.3309 6.09702C17.1958 6.03254 17.1385 5.87077 17.203 5.7357Z" fill="#1B1B1B"></path><path fill-rule="evenodd" clip-rule="evenodd" d="M12.0842 4.87949C12.0878 5.02912 11.9695 5.1534 11.8198 5.15709C10.0236 5.20131 7.90233 5.58371 6.06447 6.24504C4.22402 6.90732 2.68321 7.84361 1.79791 8.74926L1.79574 8.75148L1.79351 8.75365C0.869261 9.65674 0.419438 10.7106 0.571714 11.6108C0.723955 12.5109 1.49471 13.3557 2.66362 13.9009C2.79931 13.9642 2.85798 14.1255 2.79467 14.2611C2.73136 14.3967 2.57004 14.4554 2.43435 14.3921C1.17573 13.8051 0.230157 12.8427 0.0370756 11.7012C-0.155826 10.5607 0.41901 9.33973 1.41226 8.36824C2.37241 7.38706 3.99198 6.41477 5.88081 5.73508C7.77369 5.05394 9.95248 4.6609 11.8064 4.61525C11.9561 4.61156 12.0805 4.72987 12.0842 4.87949Z" fill="#1B1B1B"></path><path fill-rule="evenodd" clip-rule="evenodd" d="M19.3205 7.37402C19.4526 7.30338 19.6169 7.35309 19.6875 7.48504C20.4052 8.82527 19.8238 10.4225 18.5841 11.6309C17.6239 12.612 16.0044 13.5842 14.1157 14.2639C12.2228 14.945 10.044 15.3381 8.19007 15.3837C8.04038 15.3874 7.91605 15.2691 7.91236 15.1195C7.90867 14.9698 8.02703 14.8455 8.17671 14.8419C9.97291 14.7976 12.0942 14.4152 13.932 13.7539C15.7725 13.0916 17.3133 12.1553 18.1986 11.2497L18.201 11.2473L18.2034 11.245C19.3633 10.1156 19.7629 8.77422 19.2095 7.74084C19.1388 7.60889 19.1885 7.44465 19.3205 7.37402Z" fill="#1B1B1B"></path><path fill-rule="evenodd" clip-rule="evenodd" d="M15.1204 7.91447C15.2701 7.91816 15.3885 8.04244 15.3848 8.19207C15.3391 10.0453 14.9459 12.2232 14.2645 14.1153C13.5843 16.004 12.6111 17.6234 11.6292 18.583C11.2054 19.0068 10.7423 19.3625 10.2576 19.6091C10.1242 19.677 9.96093 19.6238 9.89302 19.4904C9.82512 19.3571 9.87825 19.1939 10.0117 19.126C10.4351 18.9106 10.8534 18.5923 11.2468 18.1988L11.2479 18.1976L11.2491 18.1965C12.1551 17.3116 13.0918 15.7714 13.7543 13.9317C14.4159 12.0946 14.7985 9.97418 14.8427 8.17872C14.8464 8.02909 14.9707 7.91079 15.1204 7.91447Z" fill="#1B1B1B"></path></svg>
